<?xml version="1.0" encoding="UTF-8"?>
<!DOCTYPE svg PUBLIC "-//W3C//DTD SVG 1.1//EN" "http://www.w3.org/Graphics/SVG/1.1/DTD/svg11.dtd">
<svg xmlns="http://www.w3.org/2000/svg" version="1.1" width="2608px" height="396px" style="shape-rendering:geometricPrecision; text-rendering:geometricPrecision; image-rendering:optimizeQuality; fill-rule:evenodd; clip-rule:evenodd" xmlns:xlink="http://www.w3.org/1999/xlink">
<g><path style="opacity:1" fill="#4b79ce" d="M -0.5,-0.5 C 868.833,-0.5 1738.17,-0.5 2607.5,-0.5C 2607.5,131.5 2607.5,263.5 2607.5,395.5C 1738.17,395.5 868.833,395.5 -0.5,395.5C -0.5,263.5 -0.5,131.5 -0.5,-0.5 Z"/></g>
<g><path style="opacity:1" fill="#fcfcfe" d="M 146.5,54.5 C 176.118,52.0581 204.451,56.8914 231.5,69C 238.513,71.8751 244.847,75.7084 250.5,80.5C 247.818,85.8644 245.151,91.1978 242.5,96.5C 202.893,71.4886 160.893,66.3219 116.5,81C 88.3437,94.8175 78.1771,116.984 86,147.5C 89.6218,156.456 95.4552,163.623 103.5,169C 110.276,173.721 117.609,177.388 125.5,180C 156.355,188.38 187.021,197.38 217.5,207C 256.533,223.898 270.033,252.732 258,293.5C 248.441,316.725 231.608,331.891 207.5,339C 162.243,351.694 118.91,347.028 77.5,325C 68.7972,320.131 61.1305,313.965 54.5,306.5C 57.2484,301.334 60.2484,296.334 63.5,291.5C 85.6328,311.393 111.633,322.893 141.5,326C 154.5,326.667 167.5,326.667 180.5,326C 201.052,324.16 218.219,315.66 232,300.5C 244.15,281.632 244.483,262.632 233,243.5C 225.177,234.344 215.677,227.511 204.5,223C 179.722,215.222 154.722,208.222 129.5,202C 111.854,197.508 95.8537,189.841 81.5,179C 64.7055,162.271 58.5388,142.104 63,118.5C 68.1959,92.9645 82.6959,74.7978 106.5,64C 119.516,58.9111 132.849,55.7444 146.5,54.5 Z"/></g>
<g><path style="opacity:1" fill="#fcfcfe" d="M 302.5,56.5 C 310.196,56.1692 317.862,56.5025 325.5,57.5C 359.076,113.386 393.409,168.72 428.5,223.5C 463.32,168.538 497.654,113.205 531.5,57.5C 538.811,56.3354 546.144,56.1687 553.5,57C 515.208,119.083 477.041,181.25 439,243.5C 438.5,276.832 438.333,310.165 438.5,343.5C 431.5,343.5 424.5,343.5 417.5,343.5C 417.667,310.498 417.5,277.498 417,244.5C 378.56,181.944 340.393,119.278 302.5,56.5 Z"/></g>
<g><path style="opacity:1" fill="#fdfdfe" d="M 832.5,303.5 C 832.56,304.043 832.893,304.376 833.5,304.5C 834.5,221.836 834.833,139.169 834.5,56.5C 841.5,56.5 848.5,56.5 855.5,56.5C 855.5,152.167 855.5,247.833 855.5,343.5C 849.242,343.81 843.076,343.476 837,342.5C 772.715,259.88 708.048,177.546 643,95.5C 642.5,178.166 642.333,260.833 642.5,343.5C 635.5,343.5 628.5,343.5 621.5,343.5C 621.5,247.833 621.5,152.167 621.5,56.5C 627.509,56.3338 633.509,56.5005 639.5,57C 703.721,139.288 768.055,221.454 832.5,303.5 Z"/></g>
<g><path style="opacity:1" fill="#fbfcfe" d="M 929.5,56.5 C 1005.5,56.5 1081.5,56.5 1157.5,56.5C 1157.81,62.7576 1157.48,68.9242 1156.5,75C 1122.17,75.5 1087.83,75.6667 1053.5,75.5C 1053.5,164.833 1053.5,254.167 1053.5,343.5C 1046.5,343.5 1039.5,343.5 1032.5,343.5C 1032.5,254.167 1032.5,164.833 1032.5,75.5C 998.167,75.5 963.833,75.5 929.5,75.5C 929.5,69.1667 929.5,62.8333 929.5,56.5 Z"/></g>
<g><path style="opacity:1" fill="#fefefe" d="M 1689.5,56.5 C 1689.5,145.833 1689.5,235.167 1689.5,324.5C 1744.33,325.499 1799.33,325.832 1854.5,325.5C 1854.5,331.5 1854.5,337.5 1854.5,343.5C 1792.83,343.5 1731.17,343.5 1669.5,343.5C 1669.5,247.833 1669.5,152.167 1669.5,56.5C 1676.17,56.5 1682.83,56.5 1689.5,56.5 Z"/></g>
<g><path style="opacity:1" fill="#fefefe" d="M 1952.5,56.5 C 1952.5,145.833 1952.5,235.167 1952.5,324.5C 2007.33,325.499 2062.33,325.832 2117.5,325.5C 2117.5,331.5 2117.5,337.5 2117.5,343.5C 2055.83,343.5 1994.17,343.5 1932.5,343.5C 1932.5,247.833 1932.5,152.167 1932.5,56.5C 1939.17,56.5 1945.83,56.5 1952.5,56.5 Z"/></g>
<g><path style="opacity:1" fill="#fefefe" d="M 2194.5,56.5 C 2201.5,56.5 2208.5,56.5 2215.5,56.5C 2215.5,152.167 2215.5,247.833 2215.5,343.5C 2208.5,343.5 2201.5,343.5 2194.5,343.5C 2194.5,247.833 2194.5,152.167 2194.5,56.5 Z"/></g>
<g><path style="opacity:1" fill="#fcfdfe" d="M 2304.5,57.5 C 2312.9,56.1721 2321.4,56.1721 2330,57.5C 2359.33,97.5 2388.67,137.5 2418,177.5C 2418.56,178.022 2419.23,178.355 2420,178.5C 2450.62,138.618 2480.79,98.2848 2510.5,57.5C 2518.48,56.3351 2526.48,56.1684 2534.5,57C 2503.03,100.101 2471.2,142.934 2439,185.5C 2437.01,188.646 2435.18,191.813 2433.5,195C 2468.51,244.022 2504.34,292.522 2541,340.5C 2541.48,341.448 2541.65,342.448 2541.5,343.5C 2533.47,343.831 2525.47,343.498 2517.5,342.5C 2484.78,298.633 2451.95,254.967 2419,211.5C 2386.02,254.779 2353.52,298.446 2321.5,342.5C 2313.53,343.498 2305.53,343.831 2297.5,343.5C 2297.35,342.448 2297.52,341.448 2298,340.5C 2334.45,292.564 2370.28,244.231 2405.5,195.5C 2372.58,148.922 2338.92,102.922 2304.5,57.5 Z"/></g>
<g><path style="opacity:1" fill="#dae3f5" d="M 1402.5,60.5 C 1404.1,62.0739 1406.1,62.7406 1408.5,62.5C 1408.5,62.8333 1408.5,63.1667 1408.5,63.5C 1400.34,61.8705 1392,61.3705 1383.5,62C 1373.03,64.7806 1362.36,66.9472 1351.5,68.5C 1355.32,66.5869 1359.32,65.2535 1363.5,64.5C 1372.5,62.9064 1381.5,61.2397 1390.5,59.5C 1394.48,60.1638 1398.48,60.4971 1402.5,60.5 Z"/></g>
<g><path style="opacity:1" fill="#96b0e2" d="M 1402.5,60.5 C 1398.48,60.4971 1394.48,60.1638 1390.5,59.5C 1381.5,61.2397 1372.5,62.9064 1363.5,64.5C 1364.35,63.0337 1365.68,62.2004 1367.5,62C 1373.89,61.1048 1380.22,59.9381 1386.5,58.5C 1387.82,58.179 1389.15,57.8457 1390.5,57.5C 1394.59,58.6895 1398.59,59.6895 1402.5,60.5 Z"/></g>
<g><path style="opacity:1" fill="#fefefe" d="M 1408.5,63.5 C 1412.54,65.5063 1416.87,66.5063 1421.5,66.5C 1421.5,67.5 1421.5,68.5 1421.5,69.5C 1427.85,70.037 1434.18,70.7037 1440.5,71.5C 1441.17,71.5 1441.83,71.5 1442.5,71.5C 1443.06,72.7899 1444.06,73.6232 1445.5,74C 1448.15,74.4974 1450.81,74.6641 1453.5,74.5C 1454.17,74.5 1454.83,74.5 1455.5,74.5C 1455.58,75.7498 1456.24,76.5831 1457.5,77C 1465.71,79.3756 1474.04,81.2089 1482.5,82.5C 1484.5,82.5 1486.5,82.5 1488.5,82.5C 1488.58,83.7498 1489.24,84.5831 1490.5,85C 1493.48,85.498 1496.48,85.6646 1499.5,85.5C 1502.56,86.6326 1505.56,87.6326 1508.5,88.5C 1508.5,89.5 1508.5,90.5 1508.5,91.5C 1523.14,94.161 1537.81,96.8277 1552.5,99.5C 1553.83,112.833 1553.83,126.167 1552.5,139.5C 1547.27,140.496 1541.94,141.329 1536.5,142C 1535.83,142.667 1535.17,143.333 1534.5,144C 1530.96,144.282 1527.46,144.782 1524,145.5C 1522.97,145.836 1522.47,146.503 1522.5,147.5C 1519.48,147.335 1516.48,147.502 1513.5,148C 1512.62,148.708 1511.95,149.542 1511.5,150.5C 1510.17,150.5 1508.83,150.5 1507.5,150.5C 1502.27,151.973 1496.94,153.14 1491.5,154C 1490.94,154.383 1490.61,154.883 1490.5,155.5C 1490.17,155.5 1489.83,155.5 1489.5,155.5C 1482.51,156.529 1475.51,157.695 1468.5,159C 1467.62,159.708 1466.95,160.542 1466.5,161.5C 1463.03,161.547 1459.7,162.213 1456.5,163.5C 1448.96,164.979 1441.3,165.979 1433.5,166.5C 1433.5,167.5 1433.5,168.5 1433.5,169.5C 1430.48,169.335 1427.48,169.502 1424.5,170C 1423.62,170.708 1422.95,171.542 1422.5,172.5C 1415.25,174.536 1407.92,176.202 1400.5,177.5C 1394.46,177.829 1388.46,177.496 1382.5,176.5C 1378.57,175.082 1374.57,173.916 1370.5,173C 1366.83,172.667 1363.17,172.333 1359.5,172C 1358.83,171.333 1358.17,170.667 1357.5,170C 1350.83,169.074 1344.16,168.241 1337.5,167.5C 1336.39,167.443 1335.39,167.11 1334.5,166.5C 1334.39,165.883 1334.06,165.383 1333.5,165C 1323.79,162.877 1314.12,160.711 1304.5,158.5C 1304.59,157.504 1304.25,156.671 1303.5,156C 1295.58,154.62 1287.58,153.453 1279.5,152.5C 1279.39,151.883 1279.06,151.383 1278.5,151C 1273.33,150.405 1268.33,149.239 1263.5,147.5C 1262.83,147.5 1262.17,147.5 1261.5,147.5C 1261.59,146.504 1261.25,145.671 1260.5,145C 1256.46,144.827 1252.46,144.327 1248.5,143.5C 1248.29,142.914 1247.96,142.414 1247.5,142C 1241.95,141.574 1236.62,140.407 1231.5,138.5C 1231.5,125.5 1231.5,112.5 1231.5,99.5C 1233.53,99.6621 1235.53,99.4955 1237.5,99C 1239.12,98.7645 1240.12,97.9311 1240.5,96.5C 1243.19,96.6641 1245.85,96.4974 1248.5,96C 1254.7,93.6535 1261.04,91.8202 1267.5,90.5C 1285.71,85.7748 1304.04,81.2748 1322.5,77C 1323.94,76.6232 1324.94,75.7899 1325.5,74.5C 1326.83,74.5 1328.17,74.5 1329.5,74.5C 1331.53,74.6621 1333.53,74.4955 1335.5,74C 1341,72.3466 1346.34,70.5133 1351.5,68.5C 1362.36,66.9472 1373.03,64.7806 1383.5,62C 1392,61.3705 1400.34,61.8705 1408.5,63.5 Z"/></g>
<g><path style="opacity:1" fill="#7496d9" d="M 1467.5,76.5 C 1463.3,76.8099 1459.3,76.1432 1455.5,74.5C 1454.83,74.5 1454.17,74.5 1453.5,74.5C 1449.85,73.6094 1446.18,72.6094 1442.5,71.5C 1441.83,71.5 1441.17,71.5 1440.5,71.5C 1437.36,69.129 1433.7,68.129 1429.5,68.5C 1428.19,67.7677 1426.86,66.9344 1425.5,66C 1419.45,65.88 1413.78,64.7133 1408.5,62.5C 1406.1,62.7406 1404.1,62.0739 1402.5,60.5C 1398.59,59.6895 1394.59,58.6895 1390.5,57.5C 1389.15,57.8457 1387.82,58.179 1386.5,58.5C 1387.69,57.2227 1389.36,56.5561 1391.5,56.5C 1396.78,57.7168 1402.11,58.5502 1407.5,59C 1407.96,59.414 1408.29,59.914 1408.5,60.5C 1411.78,61.3236 1415.12,61.8236 1418.5,62C 1419.17,62.6667 1419.83,63.3333 1420.5,64C 1424.29,63.9077 1427.63,64.9077 1430.5,67C 1443,70.0404 1455.33,73.2071 1467.5,76.5 Z"/></g>
<g><path style="opacity:1" fill="#7395d9" d="M 1363.5,64.5 C 1359.32,65.2535 1355.32,66.5869 1351.5,68.5C 1347.83,69.1667 1344.17,69.8333 1340.5,70.5C 1341.29,69.2058 1342.29,68.0391 1343.5,67C 1349.93,64.9606 1356.6,64.1273 1363.5,64.5 Z"/></g>
<g><path style="opacity:1" fill="#b9caec" d="M 1408.5,63.5 C 1408.5,63.1667 1408.5,62.8333 1408.5,62.5C 1413.78,64.7133 1419.45,65.88 1425.5,66C 1426.86,66.9344 1428.19,67.7677 1429.5,68.5C 1426.58,68.7174 1423.91,68.0507 1421.5,66.5C 1416.87,66.5063 1412.54,65.5063 1408.5,63.5 Z"/></g>
<g><path style="opacity:1" fill="#cfdaf2" d="M 1689.5,56.5 C 1682.83,56.5 1676.17,56.5 1669.5,56.5C 1669.5,152.167 1669.5,247.833 1669.5,343.5C 1668.5,247.668 1668.17,151.668 1668.5,55.5C 1675.69,55.1755 1682.69,55.5088 1689.5,56.5 Z"/></g>
<g><path style="opacity:1" fill="#d9e3f5" d="M 1421.5,66.5 C 1423.91,68.0507 1426.58,68.7174 1429.5,68.5C 1433.7,68.129 1437.36,69.129 1440.5,71.5C 1434.18,70.7037 1427.85,70.037 1421.5,69.5C 1421.5,68.5 1421.5,67.5 1421.5,66.5 Z"/></g>
<g><path style="opacity:1" fill="#90abe1" d="M 1339.5,70.5 C 1336.17,71.8333 1332.83,73.1667 1329.5,74.5C 1328.17,74.5 1326.83,74.5 1325.5,74.5C 1323.88,75.038 1322.22,75.3713 1320.5,75.5C 1323.87,73.9104 1327.53,72.5771 1331.5,71.5C 1334.09,70.52 1336.75,70.1866 1339.5,70.5 Z"/></g>
<g><path style="opacity:1" fill="#c5d4ef" d="M 1442.5,71.5 C 1446.18,72.6094 1449.85,73.6094 1453.5,74.5C 1450.81,74.6641 1448.15,74.4974 1445.5,74C 1444.06,73.6232 1443.06,72.7899 1442.5,71.5 Z"/></g>
<g><path style="opacity:1" fill="#cdd9f1" d="M 1351.5,68.5 C 1346.34,70.5133 1341,72.3466 1335.5,74C 1333.53,74.4955 1331.53,74.6621 1329.5,74.5C 1332.83,73.1667 1336.17,71.8333 1339.5,70.5C 1339.83,70.5 1340.17,70.5 1340.5,70.5C 1344.17,69.8333 1347.83,69.1667 1351.5,68.5 Z"/></g>
<g><path style="opacity:1" fill="#7093d8" d="M 1317.5,75.5 C 1310.69,77.8126 1303.69,79.8126 1296.5,81.5C 1302.73,77.32 1309.73,75.32 1317.5,75.5 Z"/></g>
<g><path style="opacity:1" fill="#cad7f0" d="M 1455.5,74.5 C 1459.3,76.1432 1463.3,76.8099 1467.5,76.5C 1472.57,78.3198 1477.57,80.3198 1482.5,82.5C 1474.04,81.2089 1465.71,79.3756 1457.5,77C 1456.24,76.5831 1455.58,75.7498 1455.5,74.5 Z"/></g>
<g><path style="opacity:1" fill="#83a2de" d="M 1467.5,76.5 C 1472.37,77.8764 1477.37,78.7098 1482.5,79C 1482.96,79.414 1483.29,79.914 1483.5,80.5C 1491.1,81.4106 1498.43,83.2439 1505.5,86C 1508.83,86.3333 1512.17,86.6667 1515.5,87C 1516.17,87.6667 1516.83,88.3333 1517.5,89C 1520.83,89.3333 1524.17,89.6667 1527.5,90C 1528.89,91.683 1530.55,92.8496 1532.5,93.5C 1528.13,94.0768 1524.13,93.2435 1520.5,91C 1516.49,90.1626 1512.49,89.3292 1508.5,88.5C 1505.56,87.6326 1502.56,86.6326 1499.5,85.5C 1495.86,84.7773 1492.19,83.7773 1488.5,82.5C 1486.5,82.5 1484.5,82.5 1482.5,82.5C 1477.57,80.3198 1472.57,78.3198 1467.5,76.5 Z"/></g>
<g><path style="opacity:1" fill="#c0cfee" d="M 1488.5,82.5 C 1492.19,83.7773 1495.86,84.7773 1499.5,85.5C 1496.48,85.6646 1493.48,85.498 1490.5,85C 1489.24,84.5831 1488.58,83.7498 1488.5,82.5 Z"/></g>
<g><path style="opacity:1" fill="#89a7df" d="M 1293.5,81.5 C 1287.22,84.479 1280.55,86.479 1273.5,87.5C 1279.65,84.1268 1286.32,82.1268 1293.5,81.5 Z"/></g>
<g><path style="opacity:1" fill="#cbd8f1" d="M 1325.5,74.5 C 1324.94,75.7899 1323.94,76.6232 1322.5,77C 1304.04,81.2748 1285.71,85.7748 1267.5,90.5C 1268.59,89.1429 1269.92,88.1429 1271.5,87.5C 1272.17,87.5 1272.83,87.5 1273.5,87.5C 1280.55,86.479 1287.22,84.479 1293.5,81.5C 1294.5,81.5 1295.5,81.5 1296.5,81.5C 1303.69,79.8126 1310.69,77.8126 1317.5,75.5C 1318.5,75.5 1319.5,75.5 1320.5,75.5C 1322.22,75.3713 1323.88,75.038 1325.5,74.5 Z"/></g>
<g><path style="opacity:1" fill="#b2c5ea" d="M 1271.5,87.5 C 1269.92,88.1429 1268.59,89.1429 1267.5,90.5C 1261.04,91.8202 1254.7,93.6535 1248.5,96C 1245.85,96.4974 1243.19,96.6641 1240.5,96.5C 1237.69,97.9288 1234.69,98.5955 1231.5,98.5C 1231.5,98.1667 1231.5,97.8333 1231.5,97.5C 1231.83,97.5 1232.17,97.5 1232.5,97.5C 1237.08,96.2109 1241.75,95.2109 1246.5,94.5C 1246.86,93.8165 1247.2,93.1499 1247.5,92.5C 1255.45,90.4416 1263.45,88.7749 1271.5,87.5 Z"/></g>
<g><path style="opacity:1" fill="#d8e2f4" d="M 1508.5,88.5 C 1512.49,89.3292 1516.49,90.1626 1520.5,91C 1524.13,93.2435 1528.13,94.0768 1532.5,93.5C 1536.99,94.3396 1541.32,95.3396 1545.5,96.5C 1547.59,98.0195 1549.92,99.0195 1552.5,99.5C 1537.81,96.8277 1523.14,94.161 1508.5,91.5C 1508.5,90.5 1508.5,89.5 1508.5,88.5 Z"/></g>
<g><path style="opacity:1" fill="#7e9edc" d="M 1247.5,92.5 C 1247.2,93.1499 1246.86,93.8165 1246.5,94.5C 1241.75,95.2109 1237.08,96.2109 1232.5,97.5C 1232.61,96.8826 1232.94,96.3826 1233.5,96C 1238.28,94.9329 1242.94,93.7662 1247.5,92.5 Z"/></g>
<g><path style="opacity:1" fill="#eaeff9" d="M 1240.5,96.5 C 1240.12,97.9311 1239.12,98.7645 1237.5,99C 1235.53,99.4955 1233.53,99.6621 1231.5,99.5C 1231.5,112.5 1231.5,125.5 1231.5,138.5C 1236.62,140.407 1241.95,141.574 1247.5,142C 1247.96,142.414 1248.29,142.914 1248.5,143.5C 1252.46,144.327 1256.46,144.827 1260.5,145C 1261.25,145.671 1261.59,146.504 1261.5,147.5C 1255.13,146.311 1248.8,144.978 1242.5,143.5C 1239.35,142.954 1236.35,141.954 1233.5,140.5C 1232.79,139.596 1231.79,139.263 1230.5,139.5C 1230.5,125.833 1230.5,112.167 1230.5,98.5C 1230.83,98.5 1231.17,98.5 1231.5,98.5C 1234.69,98.5955 1237.69,97.9288 1240.5,96.5 Z"/></g>
<g><path style="opacity:1" fill="#d3def3" d="M 1230.5,98.5 C 1230.5,112.167 1230.5,125.833 1230.5,139.5C 1231.79,139.263 1232.79,139.596 1233.5,140.5C 1232.17,140.5 1230.83,140.5 1229.5,140.5C 1228.52,126.912 1228.19,113.246 1228.5,99.5C 1228.84,98.6618 1229.51,98.3284 1230.5,98.5 Z"/></g>
<g><path style="opacity:1" fill="#7fa0dd" d="M 1545.5,96.5 C 1548.39,97.008 1551.22,97.6747 1554,98.5C 1554.67,112.5 1554.67,126.5 1554,140.5C 1551.7,141.867 1549.2,142.534 1546.5,142.5C 1548.37,141.203 1550.37,140.203 1552.5,139.5C 1553.83,126.167 1553.83,112.833 1552.5,99.5C 1549.92,99.0195 1547.59,98.0195 1545.5,96.5 Z"/></g>
<g><path style="opacity:1" fill="#a0b9e5" d="M 1228.5,99.5 C 1228.19,113.246 1228.52,126.912 1229.5,140.5C 1228.51,140.672 1227.84,140.338 1227.5,139.5C 1227.17,125.99 1227.5,112.656 1228.5,99.5 Z"/></g>
<g><path style="opacity:1" fill="#799bdb" d="M 1231.5,97.5 C 1231.5,97.8333 1231.5,98.1667 1231.5,98.5C 1231.17,98.5 1230.83,98.5 1230.5,98.5C 1229.51,98.3284 1228.84,98.6618 1228.5,99.5C 1227.5,112.656 1227.17,125.99 1227.5,139.5C 1226.34,126.006 1226.17,112.34 1227,98.5C 1228.36,97.6198 1229.86,97.2865 1231.5,97.5 Z"/></g>
<g><path style="opacity:1" fill="#91ace1" d="M 1229.5,140.5 C 1230.83,140.5 1232.17,140.5 1233.5,140.5C 1236.35,141.954 1239.35,142.954 1242.5,143.5C 1239.48,143.665 1236.48,143.498 1233.5,143C 1231.68,142.8 1230.35,141.966 1229.5,140.5 Z"/></g>
<g><path style="opacity:1" fill="#96b0e2" d="M 1242.5,143.5 C 1248.8,144.978 1255.13,146.311 1261.5,147.5C 1262.17,147.5 1262.83,147.5 1263.5,147.5C 1265.7,149.1 1268.04,150.433 1270.5,151.5C 1268.47,151.662 1266.47,151.495 1264.5,151C 1257.66,147.435 1250.33,145.935 1242.5,146.5C 1242.5,145.5 1242.5,144.5 1242.5,143.5 Z"/></g>
<g><path style="opacity:1" fill="#c9d7f0" d="M 1552.5,139.5 C 1550.37,140.203 1548.37,141.203 1546.5,142.5C 1543.48,142.335 1540.48,142.502 1537.5,143C 1536.83,143.667 1536.17,144.333 1535.5,145C 1530.94,145.147 1526.61,145.981 1522.5,147.5C 1522.47,146.503 1522.97,145.836 1524,145.5C 1527.46,144.782 1530.96,144.282 1534.5,144C 1535.17,143.333 1535.83,142.667 1536.5,142C 1541.94,141.329 1547.27,140.496 1552.5,139.5 Z"/></g>
<g><path style="opacity:1" fill="#86a4de" d="M 1546.5,142.5 C 1541.87,144.588 1536.87,145.921 1531.5,146.5C 1528.5,147.167 1525.5,147.833 1522.5,148.5C 1522.5,148.167 1522.5,147.833 1522.5,147.5C 1526.61,145.981 1530.94,145.147 1535.5,145C 1536.17,144.333 1536.83,143.667 1537.5,143C 1540.48,142.502 1543.48,142.335 1546.5,142.5 Z"/></g>
<g><path style="opacity:1" fill="#bdceed" d="M 1522.5,147.5 C 1522.5,147.833 1522.5,148.167 1522.5,148.5C 1518.83,149.167 1515.17,149.833 1511.5,150.5C 1511.95,149.542 1512.62,148.708 1513.5,148C 1516.48,147.502 1519.48,147.335 1522.5,147.5 Z"/></g>
<g><path style="opacity:1" fill="#c5d3ef" d="M 1263.5,147.5 C 1268.33,149.239 1273.33,150.405 1278.5,151C 1279.06,151.383 1279.39,151.883 1279.5,152.5C 1277.78,152.371 1276.12,152.038 1274.5,151.5C 1273.17,151.5 1271.83,151.5 1270.5,151.5C 1268.04,150.433 1265.7,149.1 1263.5,147.5 Z"/></g>
<g><path style="opacity:1" fill="#b9caec" d="M 1507.5,150.5 C 1502.39,153.696 1496.72,155.363 1490.5,155.5C 1490.61,154.883 1490.94,154.383 1491.5,154C 1496.94,153.14 1502.27,151.973 1507.5,150.5 Z"/></g>
<g><path style="opacity:1" fill="#8aa8df" d="M 1274.5,151.5 C 1276.12,152.038 1277.78,152.371 1279.5,152.5C 1284.97,154.202 1290.64,155.535 1296.5,156.5C 1296.5,156.833 1296.5,157.167 1296.5,157.5C 1292.13,158.077 1288.13,157.243 1284.5,155C 1282.17,154.667 1279.83,154.333 1277.5,154C 1276.06,153.623 1275.06,152.79 1274.5,151.5 Z"/></g>
<g><path style="opacity:1" fill="#d8e2f4" d="M 1279.5,152.5 C 1287.58,153.453 1295.58,154.62 1303.5,156C 1304.25,156.671 1304.59,157.504 1304.5,158.5C 1301.99,157.25 1299.33,156.584 1296.5,156.5C 1290.64,155.535 1284.97,154.202 1279.5,152.5 Z"/></g>
<g><path style="opacity:1" fill="#cddaf1" d="M 1489.5,155.5 C 1484.38,157.196 1479.05,158.529 1473.5,159.5C 1470.89,159.4 1468.56,160.067 1466.5,161.5C 1466.95,160.542 1467.62,159.708 1468.5,159C 1475.51,157.695 1482.51,156.529 1489.5,155.5 Z"/></g>
<g><path style="opacity:1" fill="#b3c6ea" d="M 1296.5,157.5 C 1296.5,157.167 1296.5,156.833 1296.5,156.5C 1299.33,156.584 1301.99,157.25 1304.5,158.5C 1314.12,160.711 1323.79,162.877 1333.5,165C 1334.06,165.383 1334.39,165.883 1334.5,166.5C 1332.56,165.85 1330.56,165.517 1328.5,165.5C 1317.7,163.459 1307.04,160.792 1296.5,157.5 Z"/></g>
<g><path style="opacity:1" fill="#7295d9" d="M 1531.5,146.5 C 1531.05,147.458 1530.38,148.292 1529.5,149C 1526.5,149.333 1523.5,149.667 1520.5,150C 1519.83,150.667 1519.17,151.333 1518.5,152C 1507.69,154.642 1496.69,156.642 1485.5,158C 1485.04,158.414 1484.71,158.914 1484.5,159.5C 1475.63,161.895 1466.63,163.895 1457.5,165.5C 1462.92,163.593 1468.25,161.593 1473.5,159.5C 1479.05,158.529 1484.38,157.196 1489.5,155.5C 1489.83,155.5 1490.17,155.5 1490.5,155.5C 1496.72,155.363 1502.39,153.696 1507.5,150.5C 1508.83,150.5 1510.17,150.5 1511.5,150.5C 1515.17,149.833 1518.83,149.167 1522.5,148.5C 1525.5,147.833 1528.5,147.167 1531.5,146.5 Z"/></g>
<g><path style="opacity:1" fill="#9eb6e5" d="M 1473.5,159.5 C 1468.25,161.593 1462.92,163.593 1457.5,165.5C 1454.81,165.166 1452.48,165.832 1450.5,167.5C 1449.17,167.5 1447.83,167.5 1446.5,167.5C 1447.43,166.685 1448.43,165.852 1449.5,165C 1452.04,164.814 1454.37,164.314 1456.5,163.5C 1459.7,162.213 1463.03,161.547 1466.5,161.5C 1468.56,160.067 1470.89,159.4 1473.5,159.5 Z"/></g>
<g><path style="opacity:1" fill="#7f9fdc" d="M 1328.5,165.5 C 1330.56,165.517 1332.56,165.85 1334.5,166.5C 1335.39,167.11 1336.39,167.443 1337.5,167.5C 1337.5,167.833 1337.5,168.167 1337.5,168.5C 1335.14,168.663 1332.81,168.497 1330.5,168C 1329.62,167.292 1328.95,166.458 1328.5,165.5 Z"/></g>
<g><path style="opacity:1" fill="#cad7f1" d="M 1456.5,163.5 C 1454.37,164.314 1452.04,164.814 1449.5,165C 1448.43,165.852 1447.43,166.685 1446.5,167.5C 1438.78,169.743 1430.78,171.41 1422.5,172.5C 1422.95,171.542 1423.62,170.708 1424.5,170C 1427.48,169.502 1430.48,169.335 1433.5,169.5C 1433.5,168.5 1433.5,167.5 1433.5,166.5C 1441.3,165.979 1448.96,164.979 1456.5,163.5 Z"/></g>
<g><path style="opacity:1" fill="#7699d9" d="M 834.5,56.5 C 834.833,139.169 834.5,221.836 833.5,304.5C 832.893,304.376 832.56,304.043 832.5,303.5C 833.167,221.167 833.833,138.833 834.5,56.5 Z"/></g>
<g><path style="opacity:1" fill="#80a0dd" d="M 1340.5,168.5 C 1350.5,170.842 1360.5,173.175 1370.5,175.5C 1370.5,175.833 1370.5,176.167 1370.5,176.5C 1365,176.46 1359.66,175.626 1354.5,174C 1350.43,172.028 1346.1,170.694 1341.5,170C 1340.94,169.617 1340.61,169.117 1340.5,168.5 Z"/></g>
<g><path style="opacity:1" fill="#b6c8eb" d="M 1370.5,176.5 C 1370.5,176.167 1370.5,175.833 1370.5,175.5C 1372.86,175.337 1375.19,175.503 1377.5,176C 1378.38,176.708 1379.05,177.542 1379.5,178.5C 1376.5,177.833 1373.5,177.167 1370.5,176.5 Z"/></g>
<g><path style="opacity:1" fill="#d8e1f4" d="M 1337.5,168.5 C 1337.5,168.167 1337.5,167.833 1337.5,167.5C 1344.16,168.241 1350.83,169.074 1357.5,170C 1358.17,170.667 1358.83,171.333 1359.5,172C 1363.17,172.333 1366.83,172.667 1370.5,173C 1374.57,173.916 1378.57,175.082 1382.5,176.5C 1388.46,177.496 1394.46,177.829 1400.5,177.5C 1395.84,180.22 1390.84,180.887 1385.5,179.5C 1383.38,179.675 1381.38,179.341 1379.5,178.5C 1379.05,177.542 1378.38,176.708 1377.5,176C 1375.19,175.503 1372.86,175.337 1370.5,175.5C 1360.5,173.175 1350.5,170.842 1340.5,168.5C 1339.5,168.5 1338.5,168.5 1337.5,168.5 Z"/></g>
<g><path style="opacity:1" fill="#88a6df" d="M 1446.5,167.5 C 1447.83,167.5 1449.17,167.5 1450.5,167.5C 1434.45,171.458 1418.11,175.291 1401.5,179C 1400.17,179.667 1399.17,180.667 1398.5,182C 1394.5,182.667 1390.5,182.667 1386.5,182C 1385.75,181.329 1385.41,180.496 1385.5,179.5C 1390.84,180.887 1395.84,180.22 1400.5,177.5C 1407.92,176.202 1415.25,174.536 1422.5,172.5C 1430.78,171.41 1438.78,169.743 1446.5,167.5 Z"/></g>
<g><path style="opacity:1" fill="#b4c7eb" d="M 1234.5,181.5 C 1238.43,182.525 1242.43,183.192 1246.5,183.5C 1249.5,184.833 1252.5,186.167 1255.5,187.5C 1251.7,188.12 1248.36,187.286 1245.5,185C 1240.53,183.853 1235.53,183.02 1230.5,182.5C 1229.5,194.655 1229.17,206.989 1229.5,219.5C 1228.17,213.705 1227.5,207.538 1227.5,201C 1227.67,194.833 1227.83,188.667 1228,182.5C 1230.04,181.577 1232.21,181.244 1234.5,181.5 Z"/></g>
<g><path style="opacity:1" fill="#fdfefe" d="M 1230.5,182.5 C 1235.53,183.02 1240.53,183.853 1245.5,185C 1248.36,187.286 1251.7,188.12 1255.5,187.5C 1258.22,189.986 1261.55,191.153 1265.5,191C 1268.7,193.277 1272.37,194.11 1276.5,193.5C 1276.41,194.496 1276.75,195.329 1277.5,196C 1288.1,198.52 1298.76,200.353 1309.5,201.5C 1310.5,201.5 1311.5,201.5 1312.5,201.5C 1312.8,202.15 1313.14,202.817 1313.5,203.5C 1316.58,203.963 1319.25,205.129 1321.5,207C 1324.48,207.498 1327.48,207.665 1330.5,207.5C 1334.54,207.958 1338.54,208.624 1342.5,209.5C 1345.99,212.058 1349.99,213.725 1354.5,214.5C 1358.11,215.489 1361.77,215.823 1365.5,215.5C 1369.18,216.609 1372.85,217.609 1376.5,218.5C 1376.41,219.496 1376.75,220.329 1377.5,221C 1383.15,222.186 1388.82,222.853 1394.5,223C 1400.49,219.939 1406.83,217.606 1413.5,216C 1417.83,215.667 1422.17,215.333 1426.5,215C 1433.38,213.074 1440.38,211.407 1447.5,210C 1448.17,209.333 1448.83,208.667 1449.5,208C 1452.17,207.667 1454.83,207.333 1457.5,207C 1458.38,206.292 1459.05,205.458 1459.5,204.5C 1470.76,202.909 1481.76,200.076 1492.5,196C 1501.57,194.322 1510.57,192.322 1519.5,190C 1521.32,189.8 1522.65,188.966 1523.5,187.5C 1527.85,187.666 1532.18,187.499 1536.5,187C 1542.03,186.112 1547.36,184.612 1552.5,182.5C 1552.83,195.184 1552.5,207.851 1551.5,220.5C 1542.6,223.309 1533.6,225.642 1524.5,227.5C 1520.78,227.002 1517.45,227.836 1514.5,230C 1512.17,230.333 1509.83,230.667 1507.5,231C 1506.06,231.377 1505.06,232.21 1504.5,233.5C 1503.83,233.5 1503.17,233.5 1502.5,233.5C 1498.92,233.232 1495.58,233.899 1492.5,235.5C 1489.15,235.335 1485.82,235.502 1482.5,236C 1478.76,237.853 1474.76,239.019 1470.5,239.5C 1470.29,240.086 1469.96,240.586 1469.5,241C 1465.55,240.847 1462.22,242.014 1459.5,244.5C 1457.83,244.5 1456.17,244.5 1454.5,244.5C 1449.71,245.986 1444.71,246.819 1439.5,247C 1438.83,247.667 1438.17,248.333 1437.5,249C 1432.12,248.862 1427.12,250.029 1422.5,252.5C 1417.27,253.924 1411.94,254.757 1406.5,255C 1405.83,255.667 1405.17,256.333 1404.5,257C 1398.25,257.257 1392.25,258.424 1386.5,260.5C 1381.66,258.855 1376.66,257.855 1371.5,257.5C 1367.83,256.205 1364.16,254.705 1360.5,253C 1355.73,252.332 1351.06,251.499 1346.5,250.5C 1340.26,248.515 1333.93,246.848 1327.5,245.5C 1325.26,244.916 1323.26,243.75 1321.5,242C 1310.61,239.542 1299.61,237.542 1288.5,236C 1287.83,235.333 1287.17,234.667 1286.5,234C 1283.52,233.502 1280.52,233.335 1277.5,233.5C 1276.65,232.034 1275.32,231.2 1273.5,231C 1268.33,230.567 1263.33,229.733 1258.5,228.5C 1257.04,228.567 1255.71,228.234 1254.5,227.5C 1254.12,226.069 1253.12,225.236 1251.5,225C 1244.84,223.663 1238.17,222.163 1231.5,220.5C 1230.5,207.851 1230.17,195.184 1230.5,182.5 Z"/></g>
<g><path style="opacity:1" fill="#7d9edc" d="M 1550.5,223.5 C 1551.17,222.733 1552.01,222.066 1553,221.5C 1553.83,208.327 1553.66,195.327 1552.5,182.5C 1549.7,181.362 1546.7,181.195 1543.5,182C 1538.29,183.823 1532.95,185.323 1527.5,186.5C 1528.06,185.21 1529.06,184.377 1530.5,184C 1534.8,183.969 1538.8,182.969 1542.5,181C 1546.49,180.501 1550.49,180.334 1554.5,180.5C 1554.67,194.504 1554.5,208.504 1554,222.5C 1552.99,223.337 1551.82,223.67 1550.5,223.5 Z"/></g>
<g><path style="opacity:1" fill="#cedaf1" d="M 1552.5,182.5 C 1547.36,184.612 1542.03,186.112 1536.5,187C 1532.18,187.499 1527.85,187.666 1523.5,187.5C 1524.57,186.566 1525.9,186.232 1527.5,186.5C 1532.95,185.323 1538.29,183.823 1543.5,182C 1546.7,181.195 1549.7,181.362 1552.5,182.5 Z"/></g>
<g><path style="opacity:1" fill="#7598da" d="M 1246.5,183.5 C 1248.53,183.338 1250.53,183.505 1252.5,184C 1255.53,185.844 1258.87,186.844 1262.5,187C 1263.06,187.383 1263.39,187.883 1263.5,188.5C 1260.83,188.167 1258.17,187.833 1255.5,187.5C 1252.5,186.167 1249.5,184.833 1246.5,183.5 Z"/></g>
<g><path style="opacity:1" fill="#88a6df" d="M 1266.5,189.5 C 1271.99,190.854 1277.65,191.687 1283.5,192C 1291.09,194.755 1298.76,197.089 1306.5,199C 1307.06,199.383 1307.39,199.883 1307.5,200.5C 1297.28,197.99 1286.95,195.656 1276.5,193.5C 1272.97,192.735 1269.63,191.402 1266.5,189.5 Z"/></g>
<g><path style="opacity:1" fill="#d4def3" d="M 1255.5,187.5 C 1258.17,187.833 1260.83,188.167 1263.5,188.5C 1264.21,189.404 1265.21,189.737 1266.5,189.5C 1269.63,191.402 1272.97,192.735 1276.5,193.5C 1272.37,194.11 1268.7,193.277 1265.5,191C 1261.55,191.153 1258.22,189.986 1255.5,187.5 Z"/></g>
<g><path style="opacity:1" fill="#dfe7f6" d="M 1276.5,193.5 C 1286.95,195.656 1297.28,197.99 1307.5,200.5C 1308.17,200.5 1308.83,200.5 1309.5,200.5C 1309.5,200.833 1309.5,201.167 1309.5,201.5C 1298.76,200.353 1288.1,198.52 1277.5,196C 1276.75,195.329 1276.41,194.496 1276.5,193.5 Z"/></g>
<g><path style="opacity:1" fill="#7a9cdb" d="M 1234.5,181.5 C 1232.21,181.244 1230.04,181.577 1228,182.5C 1227.83,188.667 1227.67,194.833 1227.5,201C 1227.5,207.538 1228.17,213.705 1229.5,219.5C 1229.41,220.496 1229.75,221.329 1230.5,222C 1236.1,222.976 1241.43,224.476 1246.5,226.5C 1243.81,226.664 1241.15,226.497 1238.5,226C 1234.6,224.991 1230.77,223.825 1227,222.5C 1226.5,208.504 1226.33,194.504 1226.5,180.5C 1229.39,180.194 1232.05,180.527 1234.5,181.5 Z"/></g>
<g><path style="opacity:1" fill="#81a1dd" d="M 1309.5,201.5 C 1309.5,201.167 1309.5,200.833 1309.5,200.5C 1315.4,201.494 1321.4,202.327 1327.5,203C 1328.76,203.417 1329.42,204.25 1329.5,205.5C 1323.87,204.086 1318.2,202.753 1312.5,201.5C 1311.5,201.5 1310.5,201.5 1309.5,201.5 Z"/></g>
<g><path style="opacity:1" fill="#afc3e9" d="M 1523.5,187.5 C 1522.65,188.966 1521.32,189.8 1519.5,190C 1510.57,192.322 1501.57,194.322 1492.5,196C 1481.76,200.076 1470.76,202.909 1459.5,204.5C 1456.78,206.123 1453.78,206.79 1450.5,206.5C 1450.5,206.167 1450.5,205.833 1450.5,205.5C 1463.1,202.555 1475.44,199.055 1487.5,195C 1490.83,194.667 1494.17,194.333 1497.5,194C 1506.05,191.314 1514.72,189.148 1523.5,187.5 Z"/></g>
<g><path style="opacity:1" fill="#d7e1f4" d="M 1312.5,201.5 C 1318.2,202.753 1323.87,204.086 1329.5,205.5C 1330.17,205.5 1330.5,205.833 1330.5,206.5C 1330.5,206.833 1330.5,207.167 1330.5,207.5C 1327.48,207.665 1324.48,207.498 1321.5,207C 1319.25,205.129 1316.58,203.963 1313.5,203.5C 1313.14,202.817 1312.8,202.15 1312.5,201.5 Z"/></g>
<g><path style="opacity:1" fill="#8ba7df" d="M 1330.5,207.5 C 1330.5,207.167 1330.5,206.833 1330.5,206.5C 1337.33,207.823 1344.33,208.657 1351.5,209C 1353.86,210.276 1356.19,211.442 1358.5,212.5C 1353.02,211.966 1347.68,210.966 1342.5,209.5C 1338.54,208.624 1334.54,207.958 1330.5,207.5 Z"/></g>
<g><path style="opacity:1" fill="#dae3f5" d="M 1459.5,204.5 C 1459.05,205.458 1458.38,206.292 1457.5,207C 1454.83,207.333 1452.17,207.667 1449.5,208C 1448.83,208.667 1448.17,209.333 1447.5,210C 1440.38,211.407 1433.38,213.074 1426.5,215C 1422.17,215.333 1417.83,215.667 1413.5,216C 1406.83,217.606 1400.49,219.939 1394.5,223C 1388.82,222.853 1383.15,222.186 1377.5,221C 1376.75,220.329 1376.41,219.496 1376.5,218.5C 1382.55,220.508 1388.55,220.841 1394.5,219.5C 1398.8,219.281 1402.8,218.281 1406.5,216.5C 1406.83,216.5 1407.17,216.5 1407.5,216.5C 1422.07,213.9 1436.4,210.567 1450.5,206.5C 1453.78,206.79 1456.78,206.123 1459.5,204.5 Z"/></g>
<g><path style="opacity:1" fill="#d5dff3" d="M 1342.5,209.5 C 1347.68,210.966 1353.02,211.966 1358.5,212.5C 1360.44,214.163 1362.77,214.829 1365.5,214.5C 1365.5,214.833 1365.5,215.167 1365.5,215.5C 1361.77,215.823 1358.11,215.489 1354.5,214.5C 1349.99,213.725 1345.99,212.058 1342.5,209.5 Z"/></g>
<g><path style="opacity:1" fill="#8ca9e0" d="M 1450.5,205.5 C 1450.5,205.833 1450.5,206.167 1450.5,206.5C 1436.4,210.567 1422.07,213.9 1407.5,216.5C 1408.35,215.034 1409.68,214.2 1411.5,214C 1422.58,212.803 1433.25,210.136 1443.5,206C 1445.81,205.503 1448.14,205.337 1450.5,205.5 Z"/></g>
<g><path style="opacity:1" fill="#90abe1" d="M 1365.5,215.5 C 1365.5,215.167 1365.5,214.833 1365.5,214.5C 1370.22,214.848 1374.89,215.515 1379.5,216.5C 1383.96,219.228 1388.96,220.228 1394.5,219.5C 1388.55,220.841 1382.55,220.508 1376.5,218.5C 1372.85,217.609 1369.18,216.609 1365.5,215.5 Z"/></g>
<g><path style="opacity:1" fill="#6b8fd7" d="M 1379.5,216.5 C 1383.18,216.947 1386.85,217.613 1390.5,218.5C 1395.75,217.12 1401.09,216.453 1406.5,216.5C 1402.8,218.281 1398.8,219.281 1394.5,219.5C 1388.96,220.228 1383.96,219.228 1379.5,216.5 Z"/></g>
<g><path style="opacity:1" fill="#a7bde7" d="M 1552.5,182.5 C 1553.66,195.327 1553.83,208.327 1553,221.5C 1552.01,222.066 1551.17,222.733 1550.5,223.5C 1543.21,224.24 1536.21,226.073 1529.5,229C 1524.74,229.557 1520.08,230.39 1515.5,231.5C 1518.5,230.167 1521.5,228.833 1524.5,227.5C 1533.6,225.642 1542.6,223.309 1551.5,220.5C 1552.5,207.851 1552.83,195.184 1552.5,182.5 Z"/></g>
<g><path style="opacity:1" fill="#cfdbf2" d="M 1230.5,182.5 C 1230.17,195.184 1230.5,207.851 1231.5,220.5C 1238.17,222.163 1244.84,223.663 1251.5,225C 1253.12,225.236 1254.12,226.069 1254.5,227.5C 1252.56,226.85 1250.56,226.517 1248.5,226.5C 1247.83,226.5 1247.17,226.5 1246.5,226.5C 1241.43,224.476 1236.1,222.976 1230.5,222C 1229.75,221.329 1229.41,220.496 1229.5,219.5C 1229.17,206.989 1229.5,194.655 1230.5,182.5 Z"/></g>
<g><path style="opacity:1" fill="#88a5df" d="M 1248.5,226.5 C 1250.56,226.517 1252.56,226.85 1254.5,227.5C 1255.71,228.234 1257.04,228.567 1258.5,228.5C 1258.5,228.833 1258.5,229.167 1258.5,229.5C 1255.43,229.817 1252.43,229.484 1249.5,228.5C 1249.14,227.817 1248.8,227.15 1248.5,226.5 Z"/></g>
<g><path style="opacity:1" fill="#bdcded" d="M 1258.5,229.5 C 1258.5,229.167 1258.5,228.833 1258.5,228.5C 1263.33,229.733 1268.33,230.567 1273.5,231C 1275.32,231.2 1276.65,232.034 1277.5,233.5C 1271.57,232.169 1265.57,230.835 1259.5,229.5C 1259.17,229.5 1258.83,229.5 1258.5,229.5 Z"/></g>
<g><path style="opacity:1" fill="#c6d4ef" d="M 1524.5,227.5 C 1521.5,228.833 1518.5,230.167 1515.5,231.5C 1514.83,231.5 1514.17,231.5 1513.5,231.5C 1510.4,231.756 1507.4,232.422 1504.5,233.5C 1505.06,232.21 1506.06,231.377 1507.5,231C 1509.83,230.667 1512.17,230.333 1514.5,230C 1517.45,227.836 1520.78,227.002 1524.5,227.5 Z"/></g>
<g><path style="opacity:1" fill="#6c91d7" d="M 1259.5,229.5 C 1265.57,230.835 1271.57,232.169 1277.5,233.5C 1285.03,236.107 1292.69,238.441 1300.5,240.5C 1297.15,240.665 1293.82,240.498 1290.5,240C 1283.7,237.74 1276.7,236.074 1269.5,235C 1266.16,233.109 1262.83,231.276 1259.5,229.5 Z"/></g>
<g><path style="opacity:1" fill="#b3c6ea" d="M 1502.5,233.5 C 1499.5,235.277 1496.16,236.277 1492.5,236.5C 1492.5,236.167 1492.5,235.833 1492.5,235.5C 1495.58,233.899 1498.92,233.232 1502.5,233.5 Z"/></g>
<g><path style="opacity:1" fill="#d8e2f4" d="M 1492.5,235.5 C 1492.5,235.833 1492.5,236.167 1492.5,236.5C 1485.03,238.125 1477.7,240.125 1470.5,242.5C 1470.17,242.5 1469.83,242.5 1469.5,242.5C 1466.17,243.167 1462.83,243.833 1459.5,244.5C 1462.22,242.014 1465.55,240.847 1469.5,241C 1469.96,240.586 1470.29,240.086 1470.5,239.5C 1474.76,239.019 1478.76,237.853 1482.5,236C 1485.82,235.502 1489.15,235.335 1492.5,235.5 Z"/></g>
<g><path style="opacity:1" fill="#80a0dd" d="M 1513.5,231.5 C 1513.05,232.458 1512.38,233.292 1511.5,234C 1497.89,237.006 1484.22,239.839 1470.5,242.5C 1477.7,240.125 1485.03,238.125 1492.5,236.5C 1496.16,236.277 1499.5,235.277 1502.5,233.5C 1503.17,233.5 1503.83,233.5 1504.5,233.5C 1507.4,232.422 1510.4,231.756 1513.5,231.5 Z"/></g>
<g><path style="opacity:1" fill="#c0cfee" d="M 1277.5,233.5 C 1280.52,233.335 1283.52,233.502 1286.5,234C 1287.17,234.667 1287.83,235.333 1288.5,236C 1299.61,237.542 1310.61,239.542 1321.5,242C 1323.26,243.75 1325.26,244.916 1327.5,245.5C 1324.48,245.665 1321.48,245.498 1318.5,245C 1312.39,243.67 1306.39,242.17 1300.5,240.5C 1292.69,238.441 1285.03,236.107 1277.5,233.5 Z"/></g>
<g><path style="opacity:1" fill="#89a6df" d="M 1469.5,242.5 C 1468.4,243.558 1467.07,244.392 1465.5,245C 1458.69,245.779 1452.36,247.612 1446.5,250.5C 1442.89,251.489 1439.23,251.823 1435.5,251.5C 1441.8,249.062 1448.14,246.729 1454.5,244.5C 1456.17,244.5 1457.83,244.5 1459.5,244.5C 1462.83,243.833 1466.17,243.167 1469.5,242.5 Z"/></g>
<g><path style="opacity:1" fill="#85a3de" d="M 1327.5,245.5 C 1333.93,246.848 1340.26,248.515 1346.5,250.5C 1349.76,252.032 1353.1,253.365 1356.5,254.5C 1353.48,254.665 1350.48,254.498 1347.5,254C 1343.69,252.477 1340.02,250.811 1336.5,249C 1334.5,248.667 1332.5,248.333 1330.5,248C 1329.06,247.623 1328.06,246.79 1327.5,245.5 Z"/></g>
<g><path style="opacity:1" fill="#b0c3e9" d="M 1346.5,250.5 C 1351.06,251.499 1355.73,252.332 1360.5,253C 1364.16,254.705 1367.83,256.205 1371.5,257.5C 1366.37,257.034 1361.37,256.034 1356.5,254.5C 1353.1,253.365 1349.76,252.032 1346.5,250.5 Z"/></g>
<g><path style="opacity:1" fill="#d8e1f4" d="M 1454.5,244.5 C 1448.14,246.729 1441.8,249.062 1435.5,251.5C 1421.74,254.099 1408.07,257.266 1394.5,261C 1391.85,261.497 1389.19,261.664 1386.5,261.5C 1386.5,261.167 1386.5,260.833 1386.5,260.5C 1392.25,258.424 1398.25,257.257 1404.5,257C 1405.17,256.333 1405.83,255.667 1406.5,255C 1411.94,254.757 1417.27,253.924 1422.5,252.5C 1427.12,250.029 1432.12,248.862 1437.5,249C 1438.17,248.333 1438.83,247.667 1439.5,247C 1444.71,246.819 1449.71,245.986 1454.5,244.5 Z"/></g>
<g><path style="opacity:1" fill="#6d91d7" d="M 1435.5,251.5 C 1435.05,252.458 1434.38,253.292 1433.5,254C 1430.18,254.139 1427.18,255.139 1424.5,257C 1413.38,259.643 1402.05,261.476 1390.5,262.5C 1386.5,262.333 1382.5,262.167 1378.5,262C 1374.4,261.03 1370.4,259.696 1366.5,258C 1363.5,257.667 1360.5,257.333 1357.5,257C 1356.75,256.329 1356.41,255.496 1356.5,254.5C 1361.37,256.034 1366.37,257.034 1371.5,257.5C 1376.32,259.146 1381.32,260.479 1386.5,261.5C 1389.19,261.664 1391.85,261.497 1394.5,261C 1408.07,257.266 1421.74,254.099 1435.5,251.5 Z"/></g>
<g><path style="opacity:1" fill="#a7bde7" d="M 1371.5,257.5 C 1376.66,257.855 1381.66,258.855 1386.5,260.5C 1386.5,260.833 1386.5,261.167 1386.5,261.5C 1381.32,260.479 1376.32,259.146 1371.5,257.5 Z"/></g>
<g><path style="opacity:1" fill="#93aee2" d="M 1553.5,261.5 C 1550.99,261.054 1548.99,261.72 1547.5,263.5C 1542.12,264.186 1536.78,265.519 1531.5,267.5C 1528.4,267.756 1525.4,268.422 1522.5,269.5C 1522.61,268.883 1522.94,268.383 1523.5,268C 1531.68,266.274 1539.68,263.941 1547.5,261C 1549.71,260.211 1551.71,260.378 1553.5,261.5 Z"/></g>
<g><path style="opacity:1" fill="#fdfdfe" d="M 1552.5,302.5 C 1542.02,303.16 1531.85,305.16 1522,308.5C 1520.97,308.836 1520.47,309.503 1520.5,310.5C 1520.17,310.5 1519.83,310.5 1519.5,310.5C 1515.7,309.88 1512.36,310.714 1509.5,313C 1503.44,314.08 1497.44,315.247 1491.5,316.5C 1486.22,317.522 1480.89,318.355 1475.5,319C 1473.29,321.021 1470.62,322.188 1467.5,322.5C 1466.7,322.957 1466.37,323.624 1466.5,324.5C 1464.26,324.205 1462.26,324.539 1460.5,325.5C 1452.11,326.916 1443.77,328.749 1435.5,331C 1434.94,331.383 1434.61,331.883 1434.5,332.5C 1430.08,332.305 1425.75,332.805 1421.5,334C 1417.84,334.949 1414.51,336.449 1411.5,338.5C 1411.17,338.5 1410.83,338.5 1410.5,338.5C 1401.6,340.269 1392.6,340.769 1383.5,340C 1382.83,339.333 1382.17,338.667 1381.5,338C 1375.65,337.687 1369.99,336.854 1364.5,335.5C 1363.5,335.5 1362.5,335.5 1361.5,335.5C 1360.57,334.685 1359.57,333.852 1358.5,333C 1355.18,332.861 1352.18,331.861 1349.5,330C 1336.69,327.565 1324.03,325.065 1311.5,322.5C 1311.17,322.5 1310.83,322.5 1310.5,322.5C 1303.8,320.27 1296.8,318.603 1289.5,317.5C 1286.79,316.641 1284.12,315.475 1281.5,314C 1273.02,311.683 1264.35,309.85 1255.5,308.5C 1253.05,308.702 1250.72,308.369 1248.5,307.5C 1248.39,306.883 1248.06,306.383 1247.5,306C 1242.17,305.053 1236.83,304.22 1231.5,303.5C 1230.83,302.833 1230.17,302.167 1229.5,301.5C 1229.5,288.833 1229.5,276.167 1229.5,263.5C 1233.4,264.641 1237.4,265.474 1241.5,266C 1245.58,267.459 1249.58,269.126 1253.5,271C 1259.19,271.858 1264.86,272.858 1270.5,274C 1274.81,276.294 1279.48,277.127 1284.5,276.5C 1284.41,277.496 1284.75,278.329 1285.5,279C 1291.82,280.032 1298.16,280.865 1304.5,281.5C 1305.17,281.5 1305.83,281.5 1306.5,281.5C 1306.95,282.458 1307.62,283.292 1308.5,284C 1311.82,284.498 1315.15,284.665 1318.5,284.5C 1318.83,284.5 1319.17,284.5 1319.5,284.5C 1319.8,285.15 1320.14,285.817 1320.5,286.5C 1323.43,287.484 1326.43,287.817 1329.5,287.5C 1329.83,287.5 1330.17,287.5 1330.5,287.5C 1331.06,288.79 1332.06,289.623 1333.5,290C 1338.93,291.884 1344.6,292.718 1350.5,292.5C 1350.83,292.5 1351.17,292.5 1351.5,292.5C 1352.6,293.558 1353.93,294.392 1355.5,295C 1360.27,295.668 1364.94,296.501 1369.5,297.5C 1374.5,299.187 1379.5,300.52 1384.5,301.5C 1384.61,302.117 1384.94,302.617 1385.5,303C 1393.79,304.452 1401.45,303.118 1408.5,299C 1414.78,297.355 1421.11,296.022 1427.5,295C 1428.38,294.292 1429.05,293.458 1429.5,292.5C 1429.83,292.5 1430.17,292.5 1430.5,292.5C 1437.77,291.642 1445.1,290.642 1452.5,289.5C 1454.28,288.016 1456.28,287.016 1458.5,286.5C 1464.97,285.292 1471.3,283.625 1477.5,281.5C 1486.51,279.525 1495.51,277.692 1504.5,276C 1505.94,275.623 1506.94,274.79 1507.5,273.5C 1507.5,273.167 1507.5,272.833 1507.5,272.5C 1507.83,272.5 1508.17,272.5 1508.5,272.5C 1514.06,271.269 1519.73,270.436 1525.5,270C 1527.72,269.434 1529.72,268.6 1531.5,267.5C 1536.78,265.519 1542.12,264.186 1547.5,263.5C 1549.12,262.962 1550.78,262.629 1552.5,262.5C 1552.5,275.833 1552.5,289.167 1552.5,302.5 Z"/></g>
<g><path style="opacity:1" fill="#7c9ddc" d="M 1553.5,261.5 C 1554.17,268.325 1554.5,275.325 1554.5,282.5C 1554.5,289.867 1553.83,296.867 1552.5,303.5C 1552.5,303.167 1552.5,302.833 1552.5,302.5C 1553.5,289.01 1553.83,275.344 1553.5,261.5 Z"/></g>
<g><path style="opacity:1" fill="#9cb5e4" d="M 1236.5,263.5 C 1233.9,262.735 1231.24,262.401 1228.5,262.5C 1228.17,275.677 1228.5,288.677 1229.5,301.5C 1230.17,302.167 1230.83,302.833 1231.5,303.5C 1229.9,303.768 1228.57,303.434 1227.5,302.5C 1227.5,288.833 1227.5,275.167 1227.5,261.5C 1230.19,261.336 1232.85,261.503 1235.5,262C 1236.06,262.383 1236.39,262.883 1236.5,263.5 Z"/></g>
<g><path style="opacity:1" fill="#b2c5ea" d="M 1531.5,267.5 C 1529.72,268.6 1527.72,269.434 1525.5,270C 1519.73,270.436 1514.06,271.269 1508.5,272.5C 1512.73,270.044 1517.39,269.044 1522.5,269.5C 1525.4,268.422 1528.4,267.756 1531.5,267.5 Z"/></g>
<g><path style="opacity:1" fill="#7f9edc" d="M 1255.5,267.5 C 1263.68,269.853 1272.02,271.353 1280.5,272C 1287.23,275.101 1294.23,277.435 1301.5,279C 1302.06,279.383 1302.39,279.883 1302.5,280.5C 1296.59,279.079 1290.59,277.746 1284.5,276.5C 1282.59,275.518 1280.59,274.518 1278.5,273.5C 1271.99,272.84 1265.66,271.673 1259.5,270C 1257.68,269.8 1256.35,268.966 1255.5,267.5 Z"/></g>
<g><path style="opacity:1" fill="#cdd9f1" d="M 1236.5,263.5 C 1243.14,264.112 1249.48,265.445 1255.5,267.5C 1256.35,268.966 1257.68,269.8 1259.5,270C 1265.66,271.673 1271.99,272.84 1278.5,273.5C 1280.59,274.518 1282.59,275.518 1284.5,276.5C 1279.48,277.127 1274.81,276.294 1270.5,274C 1264.86,272.858 1259.19,271.858 1253.5,271C 1249.58,269.126 1245.58,267.459 1241.5,266C 1237.4,265.474 1233.4,264.641 1229.5,263.5C 1229.5,276.167 1229.5,288.833 1229.5,301.5C 1228.5,288.677 1228.17,275.677 1228.5,262.5C 1231.24,262.401 1233.9,262.735 1236.5,263.5 Z"/></g>
<g><path style="opacity:1" fill="#94afe2" d="M 1507.5,272.5 C 1507.5,272.833 1507.5,273.167 1507.5,273.5C 1501.83,274.833 1496.17,276.167 1490.5,277.5C 1491.35,276.034 1492.68,275.2 1494.5,275C 1498.95,274.58 1503.29,273.747 1507.5,272.5 Z"/></g>
<g><path style="opacity:1" fill="#cfdaf2" d="M 1952.5,56.5 C 1945.83,56.5 1939.17,56.5 1932.5,56.5C 1932.5,152.167 1932.5,247.833 1932.5,343.5C 1931.5,247.668 1931.17,151.668 1931.5,55.5C 1938.69,55.1755 1945.69,55.5088 1952.5,56.5 Z"/></g>
<g><path style="opacity:1" fill="#dce5f5" d="M 1284.5,276.5 C 1290.59,277.746 1296.59,279.079 1302.5,280.5C 1303.49,280.328 1304.16,280.662 1304.5,281.5C 1298.16,280.865 1291.82,280.032 1285.5,279C 1284.75,278.329 1284.41,277.496 1284.5,276.5 Z"/></g>
<g><path style="opacity:1" fill="#c3d2ef" d="M 1507.5,273.5 C 1506.94,274.79 1505.94,275.623 1504.5,276C 1495.51,277.692 1486.51,279.525 1477.5,281.5C 1477.5,281.167 1477.5,280.833 1477.5,280.5C 1481.45,278.121 1485.78,277.121 1490.5,277.5C 1496.17,276.167 1501.83,274.833 1507.5,273.5 Z"/></g>
<g><path style="opacity:1" fill="#a1b8e5" d="M 1477.5,280.5 C 1477.5,280.833 1477.5,281.167 1477.5,281.5C 1471.3,283.625 1464.97,285.292 1458.5,286.5C 1454.01,286.269 1449.67,286.936 1445.5,288.5C 1446.35,287.034 1447.68,286.2 1449.5,286C 1455.17,285 1460.83,284 1466.5,283C 1469.79,280.791 1473.46,279.958 1477.5,280.5 Z"/></g>
<g><path style="opacity:1" fill="#bdceed" d="M 1306.5,281.5 C 1310.46,282.376 1314.46,283.042 1318.5,283.5C 1318.5,283.833 1318.5,284.167 1318.5,284.5C 1315.15,284.665 1311.82,284.498 1308.5,284C 1307.62,283.292 1306.95,282.458 1306.5,281.5 Z"/></g>
<g><path style="opacity:1" fill="#c9d6f0" d="M 1319.5,284.5 C 1322.94,285.511 1326.27,286.511 1329.5,287.5C 1326.43,287.817 1323.43,287.484 1320.5,286.5C 1320.14,285.817 1319.8,285.15 1319.5,284.5 Z"/></g>
<g><path style="opacity:1" fill="#7598da" d="M 1255.5,267.5 C 1249.48,265.445 1243.14,264.112 1236.5,263.5C 1236.39,262.883 1236.06,262.383 1235.5,262C 1232.85,261.503 1230.19,261.336 1227.5,261.5C 1227.5,275.167 1227.5,288.833 1227.5,302.5C 1226.5,288.677 1226.17,274.677 1226.5,260.5C 1229.85,260.335 1233.18,260.502 1236.5,261C 1237.17,261.667 1237.83,262.333 1238.5,263C 1242.17,263.333 1245.83,263.667 1249.5,264C 1251.26,265.75 1253.26,266.916 1255.5,267.5 Z"/></g>
<g><path style="opacity:1" fill="#bbccec" d="M 1330.5,287.5 C 1335.36,288.988 1340.36,289.821 1345.5,290C 1347.17,290.985 1348.84,291.819 1350.5,292.5C 1344.6,292.718 1338.93,291.884 1333.5,290C 1332.06,289.623 1331.06,288.79 1330.5,287.5 Z"/></g>
<g><path style="opacity:1" fill="#7a9bdb" d="M 1318.5,284.5 C 1318.5,284.167 1318.5,283.833 1318.5,283.5C 1331.29,287.016 1344.29,289.683 1357.5,291.5C 1361.91,292.761 1366.24,294.261 1370.5,296C 1373.5,296.333 1376.5,296.667 1379.5,297C 1380.17,297.667 1380.83,298.333 1381.5,299C 1387.49,299.499 1393.49,299.666 1399.5,299.5C 1394.85,302.217 1389.85,302.883 1384.5,301.5C 1379.5,300.52 1374.5,299.187 1369.5,297.5C 1363.76,295.202 1357.76,293.535 1351.5,292.5C 1351.17,292.5 1350.83,292.5 1350.5,292.5C 1348.84,291.819 1347.17,290.985 1345.5,290C 1340.36,289.821 1335.36,288.988 1330.5,287.5C 1330.17,287.5 1329.83,287.5 1329.5,287.5C 1326.27,286.511 1322.94,285.511 1319.5,284.5C 1319.17,284.5 1318.83,284.5 1318.5,284.5 Z"/></g>
<g><path style="opacity:1" fill="#6a8fd7" d="M 1441.5,288.5 C 1441.39,289.117 1441.06,289.617 1440.5,290C 1437.05,290.885 1433.71,291.718 1430.5,292.5C 1430.17,292.5 1429.83,292.5 1429.5,292.5C 1427.19,292.993 1424.86,293.326 1422.5,293.5C 1422.8,292.85 1423.14,292.183 1423.5,291.5C 1429.41,289.873 1435.41,288.873 1441.5,288.5 Z"/></g>
<g><path style="opacity:1" fill="#cedaf2" d="M 1458.5,286.5 C 1456.28,287.016 1454.28,288.016 1452.5,289.5C 1445.1,290.642 1437.77,291.642 1430.5,292.5C 1433.71,291.718 1437.05,290.885 1440.5,290C 1441.06,289.617 1441.39,289.117 1441.5,288.5C 1442.83,288.5 1444.17,288.5 1445.5,288.5C 1449.67,286.936 1454.01,286.269 1458.5,286.5 Z"/></g>
<g><path style="opacity:1" fill="#acc1e9" d="M 1351.5,292.5 C 1357.76,293.535 1363.76,295.202 1369.5,297.5C 1364.94,296.501 1360.27,295.668 1355.5,295C 1353.93,294.392 1352.6,293.558 1351.5,292.5 Z"/></g>
<g><path style="opacity:1" fill="#bdceed" d="M 1553.5,261.5 C 1553.83,275.344 1553.5,289.01 1552.5,302.5C 1552.5,289.167 1552.5,275.833 1552.5,262.5C 1550.78,262.629 1549.12,262.962 1547.5,263.5C 1548.99,261.72 1550.99,261.054 1553.5,261.5 Z"/></g>
<g><path style="opacity:1" fill="#7698da" d="M 1422.5,293.5 C 1415.47,296.467 1408.14,298.467 1400.5,299.5C 1401.35,298.034 1402.68,297.2 1404.5,297C 1406.81,296.503 1409.14,296.337 1411.5,296.5C 1411.5,295.5 1411.5,294.5 1411.5,293.5C 1415.17,293.5 1418.83,293.5 1422.5,293.5 Z"/></g>
<g><path style="opacity:1" fill="#cbd8f1" d="M 1429.5,292.5 C 1429.05,293.458 1428.38,294.292 1427.5,295C 1421.11,296.022 1414.78,297.355 1408.5,299C 1401.45,303.118 1393.79,304.452 1385.5,303C 1384.94,302.617 1384.61,302.117 1384.5,301.5C 1389.85,302.883 1394.85,302.217 1399.5,299.5C 1399.83,299.5 1400.17,299.5 1400.5,299.5C 1408.14,298.467 1415.47,296.467 1422.5,293.5C 1424.86,293.326 1427.19,292.993 1429.5,292.5 Z"/></g>
<g><path style="opacity:1" fill="#d8e2f4" d="M 1552.5,302.5 C 1552.5,302.833 1552.5,303.167 1552.5,303.5C 1551.83,303.5 1551.17,303.5 1550.5,303.5C 1544.93,304.858 1539.27,305.691 1533.5,306C 1529.29,307.92 1524.96,309.42 1520.5,310.5C 1520.47,309.503 1520.97,308.836 1522,308.5C 1531.85,305.16 1542.02,303.16 1552.5,302.5 Z"/></g>
<g><path style="opacity:1" fill="#8ba8e0" d="M 1550.5,303.5 C 1534.19,309.037 1517.52,313.704 1500.5,317.5C 1501.06,316.21 1502.06,315.377 1503.5,315C 1508.97,313.625 1514.31,312.125 1519.5,310.5C 1519.83,310.5 1520.17,310.5 1520.5,310.5C 1524.96,309.42 1529.29,307.92 1533.5,306C 1539.27,305.691 1544.93,304.858 1550.5,303.5 Z"/></g>
<g><path style="opacity:1" fill="#a5bbe6" d="M 1231.5,303.5 C 1236.83,304.22 1242.17,305.053 1247.5,306C 1248.06,306.383 1248.39,306.883 1248.5,307.5C 1247.17,307.167 1245.83,306.833 1244.5,306.5C 1241.15,306.665 1237.82,306.498 1234.5,306C 1233.06,305.623 1232.06,304.79 1231.5,303.5 Z"/></g>
<g><path style="opacity:1" fill="#7c9ddc" d="M 1244.5,306.5 C 1245.83,306.833 1247.17,307.167 1248.5,307.5C 1250.72,308.369 1253.05,308.702 1255.5,308.5C 1258.93,310.567 1262.59,311.9 1266.5,312.5C 1262.82,312.665 1259.15,312.499 1255.5,312C 1252.97,309.943 1249.97,308.943 1246.5,309C 1245.62,308.292 1244.95,307.458 1244.5,306.5 Z"/></g>
<g><path style="opacity:1" fill="#c0d0ee" d="M 1255.5,308.5 C 1264.35,309.85 1273.02,311.683 1281.5,314C 1284.12,315.475 1286.79,316.641 1289.5,317.5C 1281.64,316.741 1273.98,315.074 1266.5,312.5C 1262.59,311.9 1258.93,310.567 1255.5,308.5 Z"/></g>
<g><path style="opacity:1" fill="#b1c5ea" d="M 1519.5,310.5 C 1514.31,312.125 1508.97,313.625 1503.5,315C 1502.06,315.377 1501.06,316.21 1500.5,317.5C 1497.1,317.342 1493.76,317.676 1490.5,318.5C 1490.83,317.833 1491.17,317.167 1491.5,316.5C 1497.44,315.247 1503.44,314.08 1509.5,313C 1512.36,310.714 1515.7,309.88 1519.5,310.5 Z"/></g>
<g><path style="opacity:1" fill="#dbe4f5" d="M 1491.5,316.5 C 1491.17,317.167 1490.83,317.833 1490.5,318.5C 1482.34,319.914 1474.34,321.914 1466.5,324.5C 1466.37,323.624 1466.7,322.957 1467.5,322.5C 1470.62,322.188 1473.29,321.021 1475.5,319C 1480.89,318.355 1486.22,317.522 1491.5,316.5 Z"/></g>
<g><path style="opacity:1" fill="#b9caec" d="M 1289.5,317.5 C 1296.8,318.603 1303.8,320.27 1310.5,322.5C 1306.3,322.81 1302.3,322.143 1298.5,320.5C 1295.08,320.472 1292.08,319.472 1289.5,317.5 Z"/></g>
<g><path style="opacity:1" fill="#86a4de" d="M 1490.5,318.5 C 1486.84,319.841 1483.18,321.341 1479.5,323C 1471.72,324.513 1464.06,326.346 1456.5,328.5C 1457.83,327.5 1459.17,326.5 1460.5,325.5C 1462.26,324.539 1464.26,324.205 1466.5,324.5C 1474.34,321.914 1482.34,319.914 1490.5,318.5 Z"/></g>
<g><path style="opacity:1" fill="#d1dcf3" d="M 1689.5,324.5 C 1744.83,324.5 1800.17,324.5 1855.5,324.5C 1855.82,331.022 1855.49,337.355 1854.5,343.5C 1854.5,337.5 1854.5,331.5 1854.5,325.5C 1799.33,325.832 1744.33,325.499 1689.5,324.5 Z"/></g>
<g><path style="opacity:1" fill="#cfdbf2" d="M 1952.5,324.5 C 2007.83,324.5 2063.17,324.5 2118.5,324.5C 2118.82,331.022 2118.49,337.355 2117.5,343.5C 2117.5,337.5 2117.5,331.5 2117.5,325.5C 2062.33,325.832 2007.33,325.499 1952.5,324.5 Z"/></g>
<g><path style="opacity:1" fill="#7a9bdb" d="M 1298.5,320.5 C 1302.3,322.143 1306.3,322.81 1310.5,322.5C 1310.83,322.5 1311.17,322.5 1311.5,322.5C 1312.35,323.966 1313.68,324.8 1315.5,325C 1321.54,326.18 1327.54,327.346 1333.5,328.5C 1334.1,329.9 1335.1,330.9 1336.5,331.5C 1328.21,328.79 1319.54,326.957 1310.5,326C 1307.97,323.943 1304.97,322.943 1301.5,323C 1300.06,322.623 1299.06,321.79 1298.5,320.5 Z"/></g>
<g><path style="opacity:1" fill="#dce5f5" d="M 1311.5,322.5 C 1324.03,325.065 1336.69,327.565 1349.5,330C 1352.18,331.861 1355.18,332.861 1358.5,333C 1359.57,333.852 1360.57,334.685 1361.5,335.5C 1352.26,332.856 1342.92,330.523 1333.5,328.5C 1327.54,327.346 1321.54,326.18 1315.5,325C 1313.68,324.8 1312.35,323.966 1311.5,322.5 Z"/></g>
<g><path style="opacity:1" fill="#aabfe8" d="M 1460.5,325.5 C 1459.17,326.5 1457.83,327.5 1456.5,328.5C 1450.62,328.463 1444.96,329.463 1439.5,331.5C 1437.88,332.038 1436.22,332.371 1434.5,332.5C 1434.61,331.883 1434.94,331.383 1435.5,331C 1443.77,328.749 1452.11,326.916 1460.5,325.5 Z"/></g>
<g><path style="opacity:1" fill="#a2b9e6" d="M 1333.5,328.5 C 1342.92,330.523 1352.26,332.856 1361.5,335.5C 1362.5,335.5 1363.5,335.5 1364.5,335.5C 1367.76,337.032 1371.1,338.365 1374.5,339.5C 1361.94,336.263 1349.27,333.596 1336.5,331.5C 1335.1,330.9 1334.1,329.9 1333.5,328.5 Z"/></g>
<g><path style="opacity:1" fill="#b9cbec" d="M 1434.5,332.5 C 1427,334.723 1419.34,336.723 1411.5,338.5C 1414.51,336.449 1417.84,334.949 1421.5,334C 1425.75,332.805 1430.08,332.305 1434.5,332.5 Z"/></g>
<g><path style="opacity:1" fill="#9cb5e4" d="M 1375.5,339.5 C 1381.37,341.054 1387.37,342.054 1393.5,342.5C 1393.03,343.693 1392.03,344.36 1390.5,344.5C 1385.27,343.359 1380.27,341.692 1375.5,339.5 Z"/></g>
<g><path style="opacity:1" fill="#d3def3" d="M 1364.5,335.5 C 1369.99,336.854 1375.65,337.687 1381.5,338C 1382.17,338.667 1382.83,339.333 1383.5,340C 1392.6,340.769 1401.6,340.269 1410.5,338.5C 1406.32,339.225 1402.32,340.559 1398.5,342.5C 1396.83,342.5 1395.17,342.5 1393.5,342.5C 1387.37,342.054 1381.37,341.054 1375.5,339.5C 1375.17,339.5 1374.83,339.5 1374.5,339.5C 1371.1,338.365 1367.76,337.032 1364.5,335.5 Z"/></g>
<g><path style="opacity:1" fill="#6a8fd6" d="M 1439.5,331.5 C 1439.53,332.497 1439.03,333.164 1438,333.5C 1431.37,336.11 1424.53,338.277 1417.5,340C 1411.18,341.032 1404.84,341.865 1398.5,342.5C 1402.32,340.559 1406.32,339.225 1410.5,338.5C 1410.83,338.5 1411.17,338.5 1411.5,338.5C 1419.34,336.723 1427,334.723 1434.5,332.5C 1436.22,332.371 1437.88,332.038 1439.5,331.5 Z"/></g>
</svg>
